# File created by Blade
# Date/Time:  Tue Jan 27 19:18:41 2015
# Frame Rate: 120.000 fps
#------------------------------------------------------
:FULLY-SPECIFIED
:DEGREES
3115
root 2.077069 32.282976 1.222681 -4.013042 -10.145854 -0.477294
Spine 1.286549 -11.892802 -0.893650
Head 18.260933 -2.881716 -4.562678
LeftShoulder -10.637926 -2.755934 25.075717
LeftArm -5.393030 37.458838 -102.813949
LeftForeArm 6.686827 -0.000000 16.000994
LeftHand 10.109187 -0.000000 -3.548409
LeftHandThumb1 -26.253704 0.000000 33.147579
RightShoulder -25.643282 -15.248768 -46.499659
RightArm -38.549937 72.053126 2.941877
RightForeArm 14.238384 -0.000000 109.465531
RightHand 23.977187 -0.000000 -19.088815
RightHandThumb1 -24.326973 -0.000000 -32.862282
LeftUpLeg 14.035515 11.023106 4.875559
LeftLeg 1.053661 -0.000000 -0.000000
LeftFoot -17.741042 11.313203 -25.649518
LeftToeBase 17.072427 -0.000000 -0.000000
RightUpLeg 8.695983 1.963783 6.061030
RightLeg 1.972334 -0.000000 -0.000000
RightFoot -12.078518 -14.248009 12.042286
RightToeBase 11.240393 -0.000000 -0.000000
3116
root 2.076491 32.283813 1.214724 -4.000645 -10.135422 -0.476517
Spine 1.333302 -11.877934 -0.938272
Head 18.248179 -2.891464 -4.530112
LeftShoulder -10.651500 -2.766412 25.086051
LeftArm -5.390138 37.405950 -102.795382
LeftForeArm 6.676269 -0.000000 16.027402
LeftHand 10.176370 -0.000000 -3.629485
LeftHandThumb1 -26.253704 0.000000 33.147579
RightShoulder -25.704091 -15.292075 -46.445796
RightArm -39.052709 72.308780 2.525693
RightForeArm 14.528567 -0.000000 110.832292
RightHand 24.044725 -0.000000 -18.603057
RightHandThumb1 -24.326973 -0.000000 -32.862282
LeftUpLeg 14.035425 11.035585 4.879861
LeftLeg 0.990650 -0.000000 -0.000000
LeftFoot -17.762573 11.287227 -25.772712
LeftToeBase 17.387032 -0.000000 -0.000000
RightUpLeg 8.673915 1.938620 6.059844
RightLeg 1.959532 -0.000000 -0.000000
RightFoot -12.055661 -14.236830 12.042228
RightToeBase 11.227923 -0.000000 -0.000000
3117
root 2.076295 32.284384 1.206392 -3.975983 -10.124869 -0.477991
Spine 1.367127 -11.851753 -0.977778
Head 18.256731 -2.924935 -4.514600
LeftShoulder -10.649323 -2.772689 25.100626
LeftArm -5.386540 37.383216 -102.786023
LeftForeArm 6.650693 -0.000000 16.065982
LeftHand 10.144967 -0.000000 -3.640656
LeftHandThumb1 -26.253704 0.000000 33.147579
RightShoulder -25.735112 -15.163046 -46.489012
RightArm -39.556990 72.299351 2.139856
RightForeArm 14.404409 -0.000000 112.092807
RightHand 24.168218 -0.000000 -18.496327
RightHandThumb1 -24.326973 -0.000000 -32.862282
LeftUpLeg 14.017500 11.083502 4.885994
LeftLeg 0.947412 -0.000000 -0.000000
LeftFoot -17.645478 11.288970 -25.588451
LeftToeBase 17.161075 -0.000000 -0.000000
RightUpLeg 8.648154 1.929455 6.061331
RightLeg 1.934292 -0.000000 -0.000000
RightFoot -12.020037 -14.242917 12.014615
RightToeBase 11.196789 -0.000000 -0.000000
3118
root 2.076246 32.284851 1.198088 -3.950856 -10.115683 -0.474844
Spine 1.406913 -11.831080 -1.028591
Head 18.240778 -2.962185 -4.482558
LeftShoulder -10.656274 -2.785705 25.113799
LeftArm -5.395177 37.344727 -102.775057
LeftForeArm 6.672017 -0.000000 16.102477
LeftHand 10.130787 -0.000000 -3.610168
LeftHandThumb1 -26.253704 0.000000 33.147579
RightShoulder -25.811399 -15.184501 -46.419275
RightArm -39.946662 72.458445 1.828891
RightForeArm 14.226703 0.000000 113.289665
RightHand 24.105967 -0.000000 -18.488691
RightHandThumb1 -24.326973 -0.000000 -32.862282
LeftUpLeg 14.000626 11.101274 4.882548
LeftLeg 0.894308 -0.000000 -0.000000
LeftFoot -17.591822 11.286143 -25.574841
LeftToeBase 17.038410 -0.000000 -0.000000
RightUpLeg 8.613196 1.923689 6.058487
RightLeg 1.926424 -0.000000 -0.000000
RightFoot -12.021583 -14.234479 12.024933
RightToeBase 11.242367 -0.000000 -0.000000
3119
root 2.076560 32.285460 1.190958 -3.923791 -10.099727 -0.472851
Spine 1.437495 -11.821813 -1.074326
Head 18.254512 -2.958066 -4.451234
LeftShoulder -10.640451 -2.809112 25.116300
LeftArm -5.448278 37.327175 -102.770479
LeftForeArm 6.642617 -0.000000 16.184066
LeftHand 10.084418 -0.000000 -3.585394
LeftHandThumb1 -26.253704 0.000000 33.147579
RightShoulder -25.870073 -15.209803 -46.358753
RightArm -40.397797 72.612725 1.457994
RightForeArm 14.099730 0.000000 114.365106
RightHand 24.002285 -0.000000 -18.442366
RightHandThumb1 -24.326973 -0.000000 -32.862282
LeftUpLeg 13.987910 11.097787 4.878616
LeftLeg 0.826442 -0.000000 -0.000000
LeftFoot -17.627247 11.260607 -25.717445
LeftToeBase 17.341721 -0.000000 -0.000000
RightUpLeg 8.586939 1.901238 6.053480
RightLeg 1.896128 -0.000000 -0.000000
RightFoot -11.983161 -14.233251 12.012924
RightToeBase 11.248634 -0.000000 -0.000000
